# xmcd
#
# Track frame offsets:
#	150
#	4930
#	22712
#	41065
#	61195
#	86015
#	104932
#	123710
#	145970
#	166783
#	184828
#	189212
#	212730
#	237673
#	253498
#	276983
#	301141
#	323612
#
# Disc length: 4647 seconds
#
# Revision: 1
# Processed by: cddbd v1.5.2PL0 Copyright (c) Steve Scherf et al.
# Submitted via: EZCDAudioConverter 6.0.0.1
#
DISCID=05122512
DTITLE=2Cztery7 - Spaleni Innym Słońcem
DYEAR=2008
DGENRE=G-Funk
TTITLE0=Intro
TTITLE1=Spaleni Innym Słońcem
TTITLE2=Kawaler Do Wzięcia (feat. Piotr Pacak)
TTITLE3=Złe Nawyki
TTITLE4=Owinałem Sobie Te Gre...
TTITLE5=Luz Naturalny
TTITLE6=Upewnij Się (feat. Trish)
TTITLE7=Z Dostawa Do Domu (feat. Piotr Pacak, Trish)
TTITLE8=Kombinuje (feat. Głośny)
TTITLE9=Jeden Kielon (feat. Sosh)
TTITLE10=Skit Głośny Gra G-Funk
TTITLE11=Nie daj zrobic się w Chuj
TTITLE12=Świętej Pamieci (feat. Małolat)
TTITLE13=Powód Do Dumy (feat. Pelson)
TTITLE14=Slow Motion (feat. Sosh)
TTITLE15=Nie traktuj mnie jak... (feat. Piotr Pacak, Flow)
TTITLE16=Na Plecach
TTITLE17=Spójrzcie na niego (feat. Ciech, Eldo)
EXTD=
EXTT0=
EXTT1=
EXTT2=
EXTT3=
EXTT4=
EXTT5=
EXTT6=
EXTT7=
EXTT8=
EXTT9=
EXTT10=
EXTT11=
EXTT12=
EXTT13=
EXTT14=
EXTT15=
EXTT16=
EXTT17=
PLAYORDER=
